<svg width="548" height="121" xmlns="http://www.w3.org/2000/svg">
  <defs>
    <linearGradient x1="100%" y1="15.7237935%" x2="18.9087946%" y2="81.9605306%" id="a">
      <stop stop-color="#F66045" offset="0%"/>
      <stop stop-color="#EF34F4" offset="100%"/>
    </linearGradient>
  </defs>
  <g fill-rule="nonzero" fill="none">
    <g fill="#FFF">
      <path d="M186.9144189 86.3374536l-3.4691535-10.2694684h-21.64091l-3.4691535 10.2694684H143.55l20.9801189-58.1384425h16.3545808l20.9801189 58.1384425h-14.9503997zm-7.1035048-21.2014833l-7.1861037-21.2843016-7.1035048 21.2843016h14.2896085zm60.2145932 21.2014833V61.2435105c0-6.2941904-3.4691535-9.7725587-8.8380816-9.7725587-5.3689281 0-8.8380816 3.4783683-8.8380816 9.7725587v25.0939431h-14.1244107V40.1248455h14.1244107v6.1285538c2.8083624-3.8924599 7.764296-6.6254636 13.959213-6.6254636 10.6552569 0 17.7587619 7.2880099 17.7587619 19.710754v26.9987639h-14.0418117zm23.8710797 0V40.1248455h14.124411v46.2126081h-14.124411zm7.103505-51.0160692c-5.038532 0-8.425087-3.39555-8.425087-7.619283C262.575005 23.39555 265.96156 20 271.000092 20c4.955934 0 8.342488 3.39555 8.342488 7.7021014 0 4.223733-3.386554 7.619283-8.342488 7.619283zm80.781718 51.0160692V61.2435105c0-6.0457355-3.469154-9.3584672-8.838082-9.3584672s-8.838081 3.3127317-8.838081 9.3584672v25.0939431h-14.041812V61.2435105c0-6.0457355-3.469154-9.3584672-8.838082-9.3584672s-8.838081 3.3127317-8.838081 9.3584672v25.0939431h-14.124411V40.1248455h14.124411v5.7972806c2.725763-3.7268233 7.4339-6.2941904 13.463619-6.2941904 6.938307 0 12.555032 3.0642769 15.69379 8.6131026 3.056159-4.8862793 8.838082-8.6131026 15.528592-8.6131026 11.398647 0 18.749949 7.2880099 18.749949 19.710754v26.9987639H351.78181zm21.145316-23.1891223c0-14.5760198 9.00328-23.6860322 20.319328-23.6860322 6.855708 0 11.729043 3.1470952 14.20701 7.2051916v-6.5426452h14.124411v46.2126081h-14.124411v-6.5426452C404.892898 83.8529048 400.019563 87 393.163855 87c-11.233449 0-20.236729-9.2756489-20.236729-23.8516687zm34.526338.0828183c0-7.3708282-4.708137-11.4289246-10.077065-11.4289246-5.286329 0-10.077065 3.9752781-10.077065 11.3461063s4.790736 11.5117429 10.077065 11.5117429c5.368928 0 10.077065-4.0580964 10.077065-11.4289246zm26.596843 7.039555V51.8850433h-5.616724V40.1248455h5.616724v-11.263288h14.124411v11.263288h9.251076v11.7601978h-9.251076v18.5512979c0 2.7330037 1.156385 3.8924598 4.295143 3.8924598h5.038532v12.0086526h-7.186104c-9.581471 0-16.271982-4.0580964-16.271982-16.066749zm76.403977-7.039555C510.454284 77.8899876 499.881625 87 486.335407 87c-13.546219 0-23.788481-9.1100124-23.788481-23.7688504 0-14.6588381 10.490059-23.7688505 23.953679-23.7688505 13.546218 0 23.953679 9.1100124 23.953679 23.7688505zm-33.535151 0c0 7.7849196 4.295142 11.5117429 9.416274 11.5117429 5.038532 0 9.746669-3.7268233 9.746669-11.5117429 0-7.867738-4.625538-11.5117429-9.581471-11.5117429-5.121132 0-9.581472 3.6440049-9.581472 11.5117429zm55.176061 1.6563659v21.4499381h-14.124411V40.1248455h14.124411v7.7021013c3.221357-4.8862793 8.259889-8.1990111 14.454806-8.1990111V54.618047h-3.882148c-6.69051 0-10.572658 2.3189122-10.572658 10.2694685zM427.665922 101.6464181c.90997-1.6162905 2.807907-2.9411188 5.329824-2.9411188 3.847872 0 6.759776 2.9146222 6.759776 7.4455349 0 4.504416-2.937903 7.5515211-6.759776 7.5515211-2.599914 0-4.445853-1.3248283-5.329824-2.9146222v2.6761531H425.3V93.8564279h2.365922v7.7899902zm9.67168 4.5044161c0-3.418057-2.209927-5.3523062-4.83584-5.3523062-2.573915 0-4.83584 2.0137389-4.83584 5.3788027 0 3.4180569 2.261925 5.4052993 4.83584 5.4052993 2.625913 0 4.83584-2.0137389 4.83584-5.4317958zm10.945638 4.5574092l4.419854-11.764475h2.443919L446.567297 120.3h-2.443919l2.807907-6.9950932-5.74581-14.3611384h2.625913l4.471852 11.764475zm27.767082 2.7556428v-8.3729147h-9.229695v8.3729147h-2.365921v-18.468106h2.365921v8.1079489h9.229695v-8.1079489h2.365922v18.468106h-2.365922zm5.485819-7.313052c0-4.5309127 2.937903-7.4455349 6.759776-7.4455349 2.651913 0 4.471853 1.3778214 5.303825 2.8881256v-2.6496565h2.391921v14.5201178h-2.391921v-2.7026497c-.857971 1.5632974-2.70391 2.9411188-5.329824 2.9411188-3.795874 0-6.733777-3.0471051-6.733777-7.5515211zm12.063601.0264965c0-3.3650638-2.235926-5.3788027-4.83584-5.3788027s-4.809841 1.9342492-4.809841 5.3523062c0 3.4180569 2.209927 5.4317958 4.809841 5.4317958 2.599914 0 4.83584-1.9872424 4.83584-5.4052993zm6.395789 7.2865555V98.9437684h2.365922v14.5201178h-2.365922zm1.221959-16.8783121c-.90997 0-1.611946-.7154073-1.611946-1.6427871 0-.9273797.701976-1.642787 1.611946-1.642787.857972 0 1.559949.7154073 1.559949 1.642787 0 .9273798-.701977 1.6427871-1.559949 1.6427871zm5.173829 16.8783121V93.8564279h2.365922v11.5260059l5.485819-6.4386654h3.301891l-6.707779 7.2335623 6.733778 7.2865555h-3.223894l-5.589815-6.4121688v6.4121688h-2.365922zm26.02514-14.5201178v14.5201178h-2.365922v-2.1462218c-.90997 1.5103042-2.651912 2.3581943-4.549849 2.3581943-3.275892 0-5.849807-2.0667321-5.849807-6.2266929v-8.5053974h2.339923v8.1874387c0 2.9411187 1.585947 4.4514229 3.977868 4.4514229 2.443919 0 4.081865-1.5368008 4.081865-4.6633955v-7.9754661h2.365922zm9.631715-3.1530913c-2.547916 0-4.159863 1.8017665-4.159863 4.3719333s1.611947 4.3719333 4.159863 4.3719333c2.521916 0 4.185861-1.8017665 4.185861-4.3719333s-1.663945-4.3719333-4.185861-4.3719333zm0 9.8037292c-3.093898 0-5.277826-2.3052012-5.277826-5.4317959s2.183928-5.4052993 5.277826-5.4052993c3.067898 0 5.251826 2.2787046 5.251826 5.4052993s-2.183928 5.4317959-5.251826 5.4317959zm2.339922-6.5446516c0 .84789-.467984 1.4573111-1.221959 1.6957801l1.455952 2.199215-1.637946.0264965-1.247959-2.1197252h-.441985v2.1197252h-1.351956v-5.6967615h2.495918c1.169961 0 1.949935.6889107 1.949935 1.7752699zm-2.027933-.5299313h-1.065964v1.1923454h1.065964c.363988 0 .675978-.185476.675978-.609421 0-.4239451-.31199-.5829244-.675978-.5829244z"/>
    </g>
    <path d="M85.540685 98.9079382c3.723524-11.5671507 9.1924661-20.3880005 15.811648-29.4672604.907361-1.2445903 2.791098-2.3084166 4.697176-2.1364284.002559-.000043.005216-.0001828.007971-.0004191a.1550215.1550215 0 0 0 .005025.0004191c1.588133.1062276 2.959682.9326984 4.114644 2.4794126l15.558122 27.1190132c1.285378 2.2405145 1.726956 4.7341228 1.424335 7.1131438C126.610838 109.621348 121.927878 114 116.232096 114c-.066211 0-.132284-.000592-.198216-.00177a11.4223177 11.4223177 0 0 1-.201051.00177H95.8294494c-.015048-.000031-.030131 0-.0452212 0-6.0647836 0-10.9812622-4.964371-10.9812622-11.088233 0-.790238.0818689-1.561168.2375096-2.304614.0091884-.09235.0278777-.186062.0567798-.281246a89.6332922 89.6332922 0 0 1 .0285403-.093809c.1113435-.4530252.2502742-.895051.4148876-1.3241544zm14.1816715-46.2615287a29.9820286 29.9820286 0 0 0-.0000205.0349762c0 .8627419-.0722984 1.541292-.398688 2.2919139-14.9678341 34.4226119-48.8428885 58.5629064-88.3536544 59.0200934-6.1235048-.206676-11.0242111-5.235881-11.0242111-11.409707 0-1.993257.5218771-3.9517777 1.5137189-5.6807431L53.6932313 5.8497944C56.8306188.3807419 63.807517-1.5094461 69.2765695 1.6279414c1.7567891 1.0078032 3.2138487 2.4648233 4.2216993 4.2215852l25.5753245 44.5797755c.3724364.6285866.5886839 1.3676046.6487427 2.217054l.0000205.0000534zm.9848355-11.6758062c-.019263-1.5866339.807266-3.5306247 2.549892-5.6307622l8.568247-9.5613695c2.231973-2.6898763 5.829478-2.6801116 8.053349 0l8.568246 9.5613695c1.74343 2.1011045 2.570953 4.0447156 2.552781 5.6307622.018172 1.5860466-.809351 3.5296577-2.552781 5.6307622l-8.568246 9.5613695c-2.223871 2.6801116-5.821376 2.6898762-8.053349 0l-8.568247-9.5613695c-1.742626-2.1001375-2.569155-4.0441283-2.549892-5.6307622z" fill="url(#a)" transform="translate(1)"/>
  </g>
</svg>