<?xml version="1.0" encoding="UTF-8"?>
<svg width="322px" height="58px" viewBox="0 0 322 58" version="1.1" xmlns="http://www.w3.org/2000/svg" xmlns:xlink="http://www.w3.org/1999/xlink">
    <!-- Generator: Sketch 48.2 (47327) - http://www.bohemiancoding.com/sketch -->
    <title>docs-logo</title>
    <desc>Created with Sketch.</desc>
    <defs>
        <linearGradient x1="50%" y1="-8.06520239%" x2="50%" y2="92.1099078%" id="linearGradient-1">
            <stop stop-color="#FFDE64" offset="0%"></stop>
            <stop stop-color="#D62563" offset="100%"></stop>
        </linearGradient>
    </defs>
    <g id="Page-1" stroke="none" stroke-width="1" fill="none" fill-rule="evenodd">
        <g id="docs-logo" fill-rule="nonzero">
            <g id="favicon" fill="url(#linearGradient-1)">
                <path d="M34.0601003,30.8361346 L34.0601003,37.8047752 C34.0601003,38.6732511 33.3599182,39.3772899 32.4962,39.3772899 C32.2459973,39.3772899 32.0095177,39.3182107 31.7998064,39.2131687 C31.7669811,39.2018426 31.734307,39.1893515 31.7018316,39.1756759 L10.699254,30.331272 C10.2602597,30.3246594 9.8392136,30.1313009 9.54707304,29.7971212 C9.16487837,29.5104261 8.91739727,29.0522215 8.91739727,28.5358962 L8.91739727,10.5056988 C8.8696373,10.4446849 8.82568589,10.3798339 8.78604183,10.3113586 L7.78913416,9.90613343 L3.2632966,8.06646121 L3.2632966,51.1048192 L8.91739727,53.4031101 L8.91739727,38.9386872 C8.91739727,38.9161862 8.91786726,38.8937956 8.91879793,38.8715246 C8.90792828,38.6449799 8.94585427,38.4125065 9.03879397,38.1893668 C9.37244319,37.3883057 10.2887502,37.0108836 11.0854228,37.3463706 L32.1948909,46.2363746 L32.6031027,46.4210855 C33.4169608,46.476329 34.0601003,47.1576366 34.0601003,47.9899845 L34.0601003,51.1048192 L39.6597767,53.3809876 L39.7142008,53.4031101 L39.7142008,28.3226642 L34.0601003,30.8361346 Z M30.9322998,31.5752471 L19.5265135,26.7721518 L14.9244915,28.7008574 L30.9322998,35.4419122 L30.9322998,31.5752471 Z M12.0451976,41.1602478 L12.0451976,53.6424114 L17.6992983,51.3441205 L17.6992983,43.5412484 L12.0451976,41.1602478 Z M10.512655,57.6875942 C10.5022272,57.6878004 10.4917743,57.687904 10.4812974,57.687904 C10.0627276,57.687904 9.68256441,57.5225601 9.40188441,57.2532852 L7.78913416,56.597731 L1.43859903,54.0163518 C0.69902146,53.8915174 0.135496228,53.2447322 0.135496228,52.4656038 L0.135496228,52.3829186 C0.134902894,52.3570801 0.134900193,52.3311796 0.135496228,52.3052355 L0.135496228,5.69132061 C0.134950097,5.66753823 0.134904361,5.64370271 0.135365339,5.6198291 C0.134904361,5.59595546 0.134950097,5.57211998 0.135496228,5.5483376 L0.135496228,5.53145745 C0.135496228,5.05237759 0.348560704,4.62333576 0.684607692,4.33491011 C0.828383613,4.20305576 0.997495561,4.09420468 1.18847642,4.01657439 L9.84260427,0.498825768 C10.2795572,0.252705986 10.820716,0.204240932 11.3183448,0.414171902 L19.4389055,3.83993251 C19.4604272,3.83904927 19.4820611,3.83860334 19.5037985,3.83860334 C20.3675167,3.83860334 21.0676987,4.54264224 21.0676987,5.41111828 L21.0676987,5.61527402 C21.0682809,5.64087609 21.0682835,5.66653747 21.0676987,5.69223932 L21.0676987,15.9153331 L30.9322998,11.9202041 L30.9322998,5.69132061 C30.9317537,5.66753823 30.931708,5.64370271 30.9321689,5.6198291 C30.931708,5.59595546 30.9317537,5.57211998 30.9322998,5.5483376 L30.9322998,5.41111828 C30.9322998,4.56887001 31.5908297,3.88127689 32.41841,3.84051476 L40.6394077,0.498825768 C41.0763607,0.252705986 41.6175196,0.204240932 42.1151485,0.414171902 L50.5750038,3.9830682 C51.3078766,4.11349216 51.8645022,4.75711326 51.8645022,5.53145745 L51.8645022,5.61527365 C51.8650846,5.64087613 51.865087,5.66653747 51.8645022,5.69223932 L51.8645022,52.4656038 C51.8645022,53.0456537 51.5521635,53.5523515 51.0873716,53.8249297 C50.9405344,53.9627903 50.7665097,54.0763734 50.5691251,54.1566069 L42.1499209,57.578863 C41.6024454,57.801402 41.0068748,57.7138783 40.5557319,57.3984173 L38.3973365,56.5210681 L31.98528,53.9146815 C31.480543,53.7095147 31.1285548,53.286279 30.9933176,52.7966675 C30.9571995,52.6706945 30.9363231,52.5382255 30.9328256,52.4014099 C30.9317419,52.3694428 30.9315615,52.3373725 30.9322998,52.3052355 L30.9322998,49.1138736 L30.9113297,49.1043848 L30.9322998,49.0575288 L30.9322998,49.1138029 L20.8270987,44.8583975 L20.8270987,52.4527083 C20.8270987,52.4995207 20.8250643,52.5458553 20.8210798,52.5916277 C20.8188573,53.2593764 20.4213705,53.8908861 19.7676629,54.1566069 L11.3531175,57.5769695 C11.0769641,57.6892209 10.788574,57.7225823 10.512655,57.6875942 Z M42.8420011,53.6443049 L48.7367018,51.2482143 L48.7367018,8.15445254 L42.8420011,10.5505432 L42.8420011,15.8069774 C42.8420011,16.3032676 42.6133537,16.7458601 42.2562015,17.0340602 C42.0970488,17.2359105 41.8862424,17.4011984 41.6330376,17.5073165 L23.5846728,25.0713789 L31.6512343,28.4682918 L40.4957722,24.5365464 C41.2857326,24.1853779 42.2092408,24.5446166 42.5584856,25.3389284 C42.566838,25.3579253 42.5747866,25.376999 42.5823347,25.3961398 C42.7464241,25.6449037 42.8420011,25.9433277 42.8420011,26.2641977 L42.8420011,53.6443049 Z M39.7142008,10.5056988 C39.6664408,10.4446849 39.6224896,10.3798339 39.5828454,10.3113586 L38.5859378,9.90613343 L34.0601003,8.06646121 L34.0601003,11.717309 L39.7142008,14.0156 L39.7142008,10.5056988 Z M12.0451976,26.5002869 L17.9398983,24.0298202 L17.9398983,8.15445254 L12.0451976,10.5505432 L12.0451976,26.5002869 Z M21.0676987,19.3058882 L21.0676987,22.7189603 L36.3655064,16.3076552 L32.4664801,14.7227705 C32.4529188,14.717258 32.4394678,14.7115882 32.4261283,14.7057639 L21.0676987,19.3058882 Z M37.0285149,5.6198291 L39.8483776,6.76605313 L41.5066364,7.44010563 L45.8643289,5.66878134 L41.4693554,3.81470657 L37.0285149,5.6198291 Z M6.2317111,5.6198291 L9.05157419,6.76605313 L10.7098326,7.44010563 L15.0675252,5.66878134 L10.6725518,3.81470657 L6.2317111,5.6198291 Z" id="Combined-Shape"></path>
            </g>
            <g id="HAIKU-DOCS" transform="translate(77.000000, 14.000000)" fill="#FFFFFF">
                <path d="M0.977,29.221 L0.977,2.079 C0.977,1.669 1.346,1.3 1.756,1.3 L4.462,1.3 C4.913,1.3 5.241,1.669 5.241,2.079 L5.241,13.518 L20.247,13.518 L20.247,2.079 C20.247,1.669 20.575,1.3 21.026,1.3 L23.732,1.3 C24.142,1.3 24.511,1.669 24.511,2.079 L24.511,29.221 C24.511,29.631 24.142,30 23.732,30 L21.026,30 C20.575,30 20.247,29.631 20.247,29.221 L20.247,17.372 L5.241,17.372 L5.241,29.221 C5.241,29.631 4.913,30 4.462,30 L1.756,30 C1.346,30 0.977,29.631 0.977,29.221 Z M29.308,30 C28.693,30 28.365,29.467 28.611,28.934 L41.198,1.341 C41.321,1.095 41.69,0.89 41.895,0.89 L42.305,0.89 C42.51,0.89 42.879,1.095 43.002,1.341 L55.507,28.934 C55.753,29.467 55.425,30 54.81,30 L52.227,30 C51.735,30 51.448,29.754 51.284,29.385 L48.742,23.768 L35.335,23.768 C34.515,25.654 33.654,27.499 32.834,29.385 C32.711,29.672 32.383,30 31.891,30 L29.308,30 Z M36.934,20.242 L47.184,20.242 L42.141,9.008 L41.936,9.008 L36.934,20.242 Z M59.607,29.221 L59.607,2.079 C59.607,1.669 59.976,1.3 60.386,1.3 L63.092,1.3 C63.502,1.3 63.871,1.669 63.871,2.079 L63.871,29.221 C63.871,29.631 63.502,30 63.092,30 L60.386,30 C59.976,30 59.607,29.631 59.607,29.221 Z M71.825,29.016 L71.825,2.284 C71.825,1.751 72.235,1.3 72.809,1.3 L75.187,1.3 C75.72,1.3 76.171,1.751 76.171,2.284 L76.171,13.641 L87.733,1.71 C87.897,1.505 88.184,1.3 88.512,1.3 L91.587,1.3 C92.325,1.3 92.735,2.161 92.161,2.776 L80.312,14.83 L92.858,28.647 C93.186,29.057 92.981,30 92.12,30 L88.84,30 C88.43,30 88.184,29.836 88.102,29.713 L76.171,16.265 L76.171,29.016 C76.171,29.549 75.72,30 75.187,30 L72.809,30 C72.235,30 71.825,29.549 71.825,29.016 Z M97.081,19.299 L97.081,2.079 C97.081,1.669 97.45,1.3 97.86,1.3 L100.607,1.3 C101.058,1.3 101.386,1.669 101.386,2.079 L101.386,19.012 C101.386,23.112 104.01,26.31 108.192,26.31 C112.415,26.31 115.08,23.153 115.08,19.094 L115.08,2.079 C115.08,1.669 115.408,1.3 115.859,1.3 L118.606,1.3 C119.016,1.3 119.385,1.669 119.385,2.079 L119.385,19.299 C119.385,25.531 114.67,30.41 108.192,30.41 C101.755,30.41 97.081,25.531 97.081,19.299 Z M135.99,29.221 L135.99,2.079 C135.99,1.669 136.318,1.3 136.728,1.3 L146.158,1.3 C154.071,1.3 160.549,7.737 160.549,15.609 C160.549,23.563 154.071,30 146.158,30 L136.728,30 C136.318,30 135.99,29.631 135.99,29.221 Z M140.172,26.105 L145.584,26.105 C151.611,26.105 155.998,21.677 155.998,15.609 C155.998,9.582 151.611,5.195 145.584,5.195 L140.172,5.195 L140.172,26.105 Z M164.362,15.691 C164.362,7.491 170.881,0.89 179.081,0.89 C187.281,0.89 193.841,7.491 193.841,15.691 C193.841,23.891 187.281,30.41 179.081,30.41 C170.881,30.41 164.362,23.891 164.362,15.691 Z M168.462,15.691 C168.462,21.554 173.259,26.31 179.081,26.31 C184.944,26.31 189.741,21.554 189.741,15.691 C189.741,9.869 184.944,4.99 179.081,4.99 C173.259,4.99 168.462,9.869 168.462,15.691 Z M197.613,15.691 C197.613,7.491 204.214,0.89 212.414,0.89 C216.555,0.89 219.548,2.284 222.336,4.703 C222.705,5.031 222.705,5.523 222.377,5.851 L220.573,7.696 C220.286,8.065 219.917,8.065 219.548,7.696 C217.621,6.015 214.997,4.949 212.455,4.949 C206.592,4.949 202.164,9.869 202.164,15.609 C202.164,21.349 206.633,26.228 212.496,26.228 C215.489,26.228 217.58,25.039 219.548,23.522 C219.917,23.235 220.286,23.276 220.532,23.481 L222.418,25.326 C222.746,25.613 222.664,26.146 222.377,26.433 C219.589,29.139 216.063,30.41 212.414,30.41 C204.214,30.41 197.613,23.891 197.613,15.691 Z M226.641,27.171 C226.272,26.843 225.985,26.556 226.395,25.859 C226.764,25.326 227.092,24.711 227.461,24.178 C227.83,23.645 228.404,23.481 228.855,23.85 C229.101,24.055 232.258,26.679 235.415,26.679 C238.244,26.679 240.048,24.957 240.048,22.866 C240.048,20.406 237.916,18.848 233.857,17.167 C229.675,15.404 226.395,13.231 226.395,8.475 C226.395,5.277 228.855,0.89 235.374,0.89 C239.474,0.89 242.549,3.022 242.959,3.309 C243.287,3.514 243.615,4.088 243.205,4.703 C242.877,5.195 242.508,5.769 242.18,6.261 C241.852,6.794 241.319,7.04 240.745,6.671 C240.458,6.507 237.588,4.621 235.21,4.621 C231.766,4.621 230.577,6.794 230.577,8.311 C230.577,10.648 232.381,12.083 235.784,13.477 C240.54,15.404 244.599,17.659 244.599,22.661 C244.599,26.925 240.786,30.41 235.456,30.41 C230.454,30.41 227.297,27.786 226.641,27.171 Z" id="Shape"></path>
            </g>
        </g>
    </g>
</svg>