<?xml version="1.0" encoding="UTF-8"?>
<svg width="318px" height="58px" viewBox="0 0 318 58" version="1.1" xmlns="http://www.w3.org/2000/svg" xmlns:xlink="http://www.w3.org/1999/xlink">
    <!-- Generator: Sketch 45 (43475) - http://www.bohemiancoding.com/sketch -->
    <title>Group</title>
    <desc>Created with Sketch.</desc>
    <defs></defs>
    <g id="Page-1" stroke="none" stroke-width="1" fill="none" fill-rule="evenodd">
        <g id="Outlined-favicon" transform="translate(-74.000000, -62.000000)">
            <g id="Group" transform="translate(74.000000, 62.000000)">
                <g id="favicon" fill-rule="nonzero" fill="#111516">
                    <path d="M7.80197417,9.77999133 L9.94013413,10.6560447 C10.7924142,11.0052434 11.7626276,10.5880706 12.1071664,9.72426315 C12.4517052,8.86045565 12.0400995,7.87711978 11.1878194,7.527921 L9.04965942,6.65186766 L2.52614678,3.9790344 C1.67386666,3.62983562 0.703653259,4.04700842 0.35911449,4.91081592 C0.0145757202,5.77462342 0.426181406,6.75795929 1.27846152,7.10715807 L7.80197417,9.77999133 Z" id="Line-Copy-3"></path>
                    <path d="M18.61686,7.09875605 C19.4645618,7.45922091 20.4400748,7.05494279 20.7957293,6.19577559 C21.1513838,5.3366084 20.7525007,4.34790127 19.9047989,3.98743641 L11.2899372,0.324172816 C10.4422355,-0.0362920404 9.46672248,0.367986083 9.11106798,1.22715328 C8.75541347,2.08632047 9.15429656,3.0750276 10.0019983,3.43549246 L18.61686,7.09875605 Z" id="Line-Copy-34"></path>
                    <path d="M9.60104217,7.76892518 C8.74876205,8.11812396 8.33715637,9.10145984 8.68169513,9.96526733 C9.0262339,10.8290748 9.99644731,11.2462476 10.8487274,10.8970489 L19.5104,7.34816225 C20.3626801,6.99896348 20.7742858,6.0156276 20.4297471,5.1518201 C20.0852083,4.2880126 19.1149949,3.87083981 18.2627148,4.22003858 L9.60104217,7.76892518 Z" id="Line-Copy-33"></path>
                    <path d="M7.80197417,56.2937989 L9.94013413,57.1698522 C10.7924142,57.519051 11.7626276,57.1018782 12.1071664,56.2380707 C12.4517052,55.3742632 12.0400995,54.3909273 11.1878194,54.0417285 L9.04965942,53.1656752 L2.52614678,50.4928419 C1.67386666,50.1436432 0.703653259,50.560816 0.35911449,51.4246234 C0.0145757202,52.2884309 0.426181406,53.2717668 1.27846152,53.6209656 L7.80197417,56.2937989 Z" id="Line-Copy-6"></path>
                    <path d="M10.0766182,54.1411849 C9.22433809,54.4903836 8.8127324,55.4737195 9.15727117,56.337527 C9.50180994,57.2013345 10.4720233,57.6185073 11.3243035,57.2693085 L19.640504,53.8619698 C20.4927841,53.512771 20.9043898,52.5294351 20.559851,51.6656276 C20.2153123,50.8018201 19.2450989,50.3846473 18.3928188,50.7338461 L10.0766182,54.1411849 Z" id="Line-Copy-66"></path>
                    <path d="M1.27846152,3.91285824 C0.426181406,4.26205701 0.0145757202,5.24539289 0.35911449,6.10920039 C0.703653259,6.97300789 1.67386666,7.39018068 2.52614678,7.04098191 L11.1878194,3.49209531 C12.0400995,3.14289653 12.4517052,2.15956066 12.1071664,1.29575316 C11.7626276,0.431945658 10.7924142,0.0147728619 9.94013413,0.363971638 L1.27846152,3.91285824 Z" id="Line-Copy-30"></path>
                    <path d="M38.2388405,9.77999133 L40.3770005,10.6560447 C41.2292806,11.0052434 42.199494,10.5880706 42.5440328,9.72426315 C42.8885715,8.86045565 42.4769659,7.87711978 41.6246857,7.527921 L39.4865258,6.65186766 L32.9630131,3.9790344 C32.110733,3.62983562 31.1405196,4.04700842 30.7959808,4.91081592 C30.4514421,5.77462342 30.8630478,6.75795929 31.7153279,7.10715807 L38.2388405,9.77999133 Z" id="Line-Copy-4"></path>
                    <path d="M38.7144166,17.251121 C39.5666967,17.6003198 40.5369101,17.183147 40.8814488,16.3193395 C41.2259876,15.455532 40.8143819,14.4721961 39.9621018,14.1229974 L33.4385892,11.4501641 C32.5863091,11.1009653 31.6160957,11.5181381 31.2715569,12.3819456 C30.9270181,13.2457531 31.3386238,14.229089 32.1909039,14.5782878 L38.7144166,17.251121 Z" id="Line-Copy-5"></path>
                    <path d="M49.0537264,7.09875605 C49.9014281,7.45922091 50.8769411,7.05494279 51.2325956,6.19577559 C51.5882501,5.3366084 51.189367,4.34790127 50.3416653,3.98743641 L41.7268035,0.324172816 C40.8791018,-0.0362920404 39.9035888,0.367986083 39.5479343,1.22715328 C39.1922798,2.08632047 39.5911629,3.0750276 40.4388647,3.43549246 L49.0537264,7.09875605 Z" id="Line-Copy-37"></path>
                    <path d="M40.0379085,7.76892518 C39.1856284,8.11812396 38.7740227,9.10145984 39.1185615,9.96526733 C39.4631003,10.8290748 40.4333137,11.2462476 41.2855938,10.8970489 L49.9472664,7.34816225 C50.7995465,6.99896348 51.2111522,6.0156276 50.8666134,5.1518201 C50.5220747,4.2880126 49.5518613,3.87083981 48.6995811,4.22003858 L40.0379085,7.76892518 Z" id="Line-Copy-36"></path>
                    <path d="M38.0524435,56.2174277 L40.1906035,57.0934811 C41.0428836,57.4426798 42.013097,57.025507 42.3576358,56.1616995 C42.7021745,55.297892 42.2905689,54.3145562 41.4382887,53.9653574 L39.3001288,53.089304 L32.9630131,50.4928419 C32.110733,50.1436432 31.1405196,50.560816 30.7959808,51.4246234 C30.4514421,52.2884309 30.8630478,53.2717668 31.7153279,53.6209656 L38.0524435,56.2174277 Z" id="Line-Copy-8"></path>
                    <path d="M40.5134846,54.1430712 C39.6612044,54.49227 39.2495988,55.4756059 39.5941375,56.3394134 C39.9386763,57.2032209 40.9088897,57.6203937 41.7611698,57.2711949 L50.0819744,53.8619698 C50.9342545,53.512771 51.3458602,52.5294351 51.0013214,51.6656276 C50.6567826,50.8018201 49.6865692,50.3846473 48.8342891,50.7338461 L40.5134846,54.1430712 Z" id="Line-Copy-70"></path>
                    <path d="M31.7153279,3.91285824 C30.8630478,4.26205701 30.4514421,5.24539289 30.7959808,6.10920039 C31.1405196,6.97300789 32.110733,7.39018068 32.9630131,7.04098191 L41.6246857,3.49209531 C42.4769659,3.14289653 42.8885715,2.15956066 42.5440328,1.29575316 C42.199494,0.431945658 41.2292806,0.0147728619 40.3770005,0.363971638 L31.7153279,3.91285824 Z" id="Line-Copy-35"></path>
                    <path d="M3.32903226,5.421973 C3.32903226,4.55680392 2.63703366,3.8554458 1.78341014,3.8554458 C0.929786612,3.8554458 0.237788018,4.55680392 0.237788018,5.421973 L0.237788018,52.1774059 C0.237788018,53.0425749 0.929786612,53.7439331 1.78341014,53.7439331 C2.63703366,53.7439331 3.32903226,53.0425749 3.32903226,52.1774059 L3.32903226,5.421973 Z" id="Line-Copy-7"></path>
                    <path d="M20.6875576,42.5532215 C20.6875576,41.6880524 19.995559,40.9866943 19.1419355,40.9866943 C18.288312,40.9866943 17.5963134,41.6880524 17.5963134,42.5532215 L17.5963134,52.1645595 C17.5963134,53.0297286 18.288312,53.7310867 19.1419355,53.7310867 C19.995559,53.7310867 20.6875576,53.0297286 20.6875576,52.1645595 L20.6875576,42.5532215 Z" id="Line-Copy-68"></path>
                    <path d="M20.9253456,5.30209205 C20.9253456,4.43692297 20.233347,3.73556485 19.3797235,3.73556485 C18.5261,3.73556485 17.8341014,4.43692297 17.8341014,5.30209205 L17.8341014,24.823431 C17.8341014,25.6886 18.5261,26.3899582 19.3797235,26.3899582 C20.233347,26.3899582 20.9253456,25.6886 20.9253456,24.823431 L20.9253456,5.30209205 Z" id="Line-Copy-67"></path>
                    <path d="M10.1058243,27.1146401 C9.31790243,27.4474906 8.94539341,28.3646953 9.2738021,29.1632741 C9.6022108,29.9618529 10.5071755,30.3394002 11.2950974,30.0065497 L41.2503272,17.3522309 C42.0382491,17.0193804 42.4107581,16.1021757 42.0823494,15.3035969 C41.7539407,14.5050182 40.848976,14.1274708 40.0610542,14.4603214 L10.1058243,27.1146401 Z" id="Line-Copy-65"></path>
                    <path d="M30.9422551,28.4699399 C30.1615274,28.8197712 29.8084324,29.7448306 30.1535952,30.5361179 C30.4987581,31.3274052 31.4114727,31.685276 32.1922004,31.3354447 L41.3762993,27.2202001 C42.1570269,26.8703688 42.510122,25.9453094 42.1649591,25.1540221 C41.8197963,24.3627348 40.9070816,24.004864 40.126354,24.3546953 L30.9422551,28.4699399 Z" id="Line-Copy-72"></path>
                    <path d="M18.9211563,16.5844706 C18.1293475,16.9077072 17.7459978,17.8203118 18.0649208,18.6228302 C18.3838438,19.4253485 19.2842699,19.8138831 20.0760787,19.4906466 L32.9717373,14.2263097 C33.7635461,13.9030732 34.1468958,12.9904685 33.8279728,12.1879502 C33.5090498,11.3854319 32.6086237,10.9968972 31.8168149,11.3201338 L18.9211563,16.5844706 Z" id="Line-Copy-64"></path>
                    <path d="M31.4351923,38.9380826 C32.2225538,39.2722923 33.1281515,38.8963071 33.4579012,38.0982962 C33.7876509,37.3002853 33.4166832,36.3824391 32.6293216,36.0482294 L11.2975255,26.9935671 C10.5101639,26.6593575 9.60456631,27.0353426 9.27481659,27.8333535 C8.94506687,28.6313644 9.31603457,29.5492106 10.1033961,29.8834203 L31.4351923,38.9380826 Z" id="Line-Copy-63"></path>
                    <path d="M30.6911444,48.8453673 L31.2882091,47.4004407 L30.6539293,48.8289855 L31.41722,49.1771193 C32.1956549,49.5321604 33.1106778,49.1803967 33.4609809,48.3914332 C33.8112839,47.6024697 33.4642145,46.6750708 32.6857796,46.3200298 L31.9224889,45.9718959 L11.0597375,37.1157429 C10.2723759,36.7815332 9.36677829,37.1575184 9.03702857,37.9555293 C8.70727885,38.7535402 9.07824656,39.6713863 9.86560813,40.005596 L30.6911444,48.8453673 Z" id="Line-Copy-62"></path>
                    <path d="M31.4887693,31.71216 C32.2761309,32.0463697 33.1817285,31.6703845 33.5114782,30.8723736 C33.841228,30.0743627 33.4702603,29.1565166 32.6828987,28.8223069 L19.8578942,23.3785044 C19.0705326,23.0442947 18.164935,23.4202799 17.8351853,24.2182908 C17.5054355,25.0163017 17.8764032,25.9341478 18.6637648,26.2683575 L31.4887693,31.71216 Z" id="Line-Copy-61"></path>
                    <path d="M12.0082949,9.39916318 C12.0082949,8.5339941 11.3162963,7.83263598 10.4626728,7.83263598 C9.60904929,7.83263598 8.91705069,8.5339941 8.91705069,9.39916318 L8.91705069,28.3388165 C8.91705069,29.2039856 9.60904929,29.9053437 10.4626728,29.9053437 C11.3162963,29.9053437 12.0082949,29.2039856 12.0082949,28.3388165 L12.0082949,9.39916318 Z" id="Line-Copy-58"></path>
                    <path d="M51.362212,5.421973 C51.362212,4.55680392 50.6702134,3.8554458 49.8165899,3.8554458 C48.9629663,3.8554458 48.2709677,4.55680392 48.2709677,5.421973 L48.2709677,52.1774059 C48.2709677,53.0425749 48.9629663,53.7439331 49.8165899,53.7439331 C50.6702134,53.7439331 51.362212,53.0425749 51.362212,52.1774059 L51.362212,5.421973 Z" id="Line-Copy-9"></path>
                    <path d="M33.7658986,47.7188285 C33.7658986,46.8536594 33.0739,46.1523013 32.2202765,46.1523013 C31.366653,46.1523013 30.6746544,46.8536594 30.6746544,47.7188285 L30.6746544,52.0724363 C30.6746544,52.9376054 31.366653,53.6389635 32.2202765,53.6389635 C33.0739,53.6389635 33.7658986,52.9376054 33.7658986,52.0724363 L33.7658986,47.7188285 Z" id="Line-Copy-73"></path>
                    <path d="M33.7658986,5.30209205 C33.7658986,4.43692297 33.0739,3.73556485 32.2202765,3.73556485 C31.366653,3.73556485 30.6746544,4.43692297 30.6746544,5.30209205 L30.6746544,12.5322176 C30.6746544,13.3973867 31.366653,14.0987448 32.2202765,14.0987448 C33.0739,14.0987448 33.7658986,13.3973867 33.7658986,12.5322176 L33.7658986,5.30209205 Z" id="Line-Copy-74"></path>
                    <path d="M42.4451613,9.39916318 C42.4451613,8.5339941 41.7531627,7.83263598 40.8995392,7.83263598 C40.0459156,7.83263598 39.3539171,8.5339941 39.3539171,9.39916318 L39.3539171,15.6583663 C39.3539171,16.5235354 40.0459156,17.2248935 40.8995392,17.2248935 C41.7531627,17.2248935 42.4451613,16.5235354 42.4451613,15.6583663 L42.4451613,9.39916318 Z" id="Line-Copy-59"></path>
                    <path d="M42.4451613,26.0757682 C42.4451613,25.2105991 41.7531627,24.509241 40.8995392,24.509241 C40.0459156,24.509241 39.3539171,25.2105991 39.3539171,26.0757682 L39.3539171,55.622338 C39.3539171,56.4875071 40.0459156,57.1888652 40.8995392,57.1888652 C41.7531627,57.1888652 42.4451613,56.4875071 42.4451613,55.622338 L42.4451613,26.0757682 Z" id="Line-Copy-71"></path>
                    <path d="M12.0082949,38.7019964 C12.0082949,37.8368274 11.3162963,37.1354693 10.4626728,37.1354693 C9.60904929,37.1354693 8.91705069,37.8368274 8.91705069,38.7019964 L8.91705069,55.8132935 C8.91705069,56.6784626 9.60904929,57.3798207 10.4626728,57.3798207 C11.3162963,57.3798207 12.0082949,56.6784626 12.0082949,55.8132935 L12.0082949,38.7019964 Z" id="Line-Copy-69"></path>
                    <path d="M33.7658986,29.9144146 C33.7658986,29.0492455 33.0739,28.3478874 32.2202765,28.3478874 C31.366653,28.3478874 30.6746544,29.0492455 30.6746544,29.9144146 L30.6746544,37.5724019 C30.6746544,38.437571 31.366653,39.1389291 32.2202765,39.1389291 C33.0739,39.1389291 33.7658986,38.437571 33.7658986,37.5724019 L33.7658986,29.9144146 Z" id="Line-Copy-55"></path>
                </g>
                <text id="HAIKU-DOCS" font-family="BrandonGrotesque-Medium, Brandon Grotesque" font-size="41" font-weight="400" letter-spacing="-0.420512885" fill="#000000">
                    <tspan x="74" y="44">HAIKU DOCS</tspan>
                </text>
            </g>
        </g>
    </g>
</svg>