<?xml version="1.0" encoding="UTF-8"?>
<svg width="38px" height="29px" viewBox="0 0 38 29" version="1.1" xmlns="http://www.w3.org/2000/svg" xmlns:xlink="http://www.w3.org/1999/xlink">
    <!-- Generator: Sketch 46.2 (44496) - http://www.bohemiancoding.com/sketch -->
    <title>0766-exit-left</title>
    <desc>Created with Sketch.</desc>
    <defs></defs>
    <g id="Page-1" stroke="none" stroke-width="1" fill="none" fill-rule="evenodd">
        <g id="docs-logo-copy" transform="translate(-1.000000, -15.000000)" fill-rule="nonzero" fill="#C4CCCD">
            <g id="0766-exit-left" transform="translate(0.000000, 15.000000)">
                <path d="M39,2.9 L39,26.1 C39,27.6988667 37.68765,29 36.075,29 L16.575,29 C14.96235,29 13.65,27.6988667 13.65,26.1 L13.65,18.3666667 C13.65,17.8330667 14.0868,17.4 14.625,17.4 C15.1632,17.4 15.6,17.8330667 15.6,18.3666667 L15.6,26.1 C15.6,26.6336 16.0368,27.0666667 16.575,27.0666667 L36.075,27.0666667 C36.6132,27.0666667 37.05,26.6336 37.05,26.1 L37.05,2.9 C37.05,2.3664 36.6132,1.93333333 36.075,1.93333333 L16.575,1.93333333 C16.0368,1.93333333 15.6,2.3664 15.6,2.9 L15.6,10.6333333 C15.6,11.1669333 15.1632,11.6 14.625,11.6 C14.0868,11.6 13.65,11.1669333 13.65,10.6333333 L13.65,2.9 C13.65,1.30113333 14.96235,0 16.575,0 L36.075,0 C37.68765,0 39,1.30113333 39,2.9 Z" id="Shape"></path>
                <path d="M7.1097,8.01753333 L1.2597,13.8175333 C0.87945,14.1945333 0.87945,14.8074 1.2597,15.1844 L7.1097,20.9844 C7.48995,21.3614 8.1081,21.3614 8.48835,20.9844 C8.8686,20.6074 8.8686,19.9945333 8.48835,19.6175333 L4.30365,15.4666667 L26.325,15.4666667 C26.8632,15.4666667 27.3,15.0336 27.3,14.5 C27.3,13.9664 26.8632,13.5333333 26.325,13.5333333 L4.30365,13.5333333 L8.48835,9.38246667 C8.67945,9.193 8.77305,8.94553333 8.77305,8.7 C8.77305,8.45446667 8.6775,8.20506667 8.48835,8.01753333 C8.1081,7.64053333 7.48995,7.64053333 7.1097,8.01753333 Z" id="Shape"></path>
            </g>
        </g>
    </g>
</svg>