<?xml version="1.0" encoding="UTF-8"?>
<svg width="201px" height="71px" viewBox="0 0 201 71" version="1.1" xmlns="http://www.w3.org/2000/svg" xmlns:xlink="http://www.w3.org/1999/xlink">
    <!-- Generator: Sketch 48.2 (47327) - http://www.bohemiancoding.com/sketch -->
    <title>logo</title>
    <desc>Created with Sketch.</desc>
    <defs></defs>
    <g id="Page-1" stroke="none" stroke-width="1" fill="none" fill-rule="evenodd">
        <g id="logo">
            <g id="Group" transform="translate(78.000000, 7.000000)" fill="#000000">
                <g id="HAIKU">
                    <path d="M3.977,42.221 L3.977,15.079 C3.977,14.669 4.346,14.3 4.756,14.3 L7.462,14.3 C7.913,14.3 8.241,14.669 8.241,15.079 L8.241,26.518 L23.247,26.518 L23.247,15.079 C23.247,14.669 23.575,14.3 24.026,14.3 L26.732,14.3 C27.142,14.3 27.511,14.669 27.511,15.079 L27.511,42.221 C27.511,42.631 27.142,43 26.732,43 L24.026,43 C23.575,43 23.247,42.631 23.247,42.221 L23.247,30.372 L8.241,30.372 L8.241,42.221 C8.241,42.631 7.913,43 7.462,43 L4.756,43 C4.346,43 3.977,42.631 3.977,42.221 Z M32.308,43 C31.693,43 31.365,42.467 31.611,41.934 L44.198,14.341 C44.321,14.095 44.69,13.89 44.895,13.89 L45.305,13.89 C45.51,13.89 45.879,14.095 46.002,14.341 L58.507,41.934 C58.753,42.467 58.425,43 57.81,43 L55.227,43 C54.735,43 54.448,42.754 54.284,42.385 L51.742,36.768 L38.335,36.768 C37.515,38.654 36.654,40.499 35.834,42.385 C35.711,42.672 35.383,43 34.891,43 L32.308,43 Z M39.934,33.242 L50.184,33.242 L45.141,22.008 L44.936,22.008 L39.934,33.242 Z M62.607,42.221 L62.607,15.079 C62.607,14.669 62.976,14.3 63.386,14.3 L66.092,14.3 C66.502,14.3 66.871,14.669 66.871,15.079 L66.871,42.221 C66.871,42.631 66.502,43 66.092,43 L63.386,43 C62.976,43 62.607,42.631 62.607,42.221 Z M74.825,42.016 L74.825,15.284 C74.825,14.751 75.235,14.3 75.809,14.3 L78.187,14.3 C78.72,14.3 79.171,14.751 79.171,15.284 L79.171,26.641 L90.733,14.71 C90.897,14.505 91.184,14.3 91.512,14.3 L94.587,14.3 C95.325,14.3 95.735,15.161 95.161,15.776 L83.312,27.83 L95.858,41.647 C96.186,42.057 95.981,43 95.12,43 L91.84,43 C91.43,43 91.184,42.836 91.102,42.713 L79.171,29.265 L79.171,42.016 C79.171,42.549 78.72,43 78.187,43 L75.809,43 C75.235,43 74.825,42.549 74.825,42.016 Z M100.081,32.299 L100.081,15.079 C100.081,14.669 100.45,14.3 100.86,14.3 L103.607,14.3 C104.058,14.3 104.386,14.669 104.386,15.079 L104.386,32.012 C104.386,36.112 107.01,39.31 111.192,39.31 C115.415,39.31 118.08,36.153 118.08,32.094 L118.08,15.079 C118.08,14.669 118.408,14.3 118.859,14.3 L121.606,14.3 C122.016,14.3 122.385,14.669 122.385,15.079 L122.385,32.299 C122.385,38.531 117.67,43.41 111.192,43.41 C104.755,43.41 100.081,38.531 100.081,32.299 Z"></path>
                </g>
            </g>
            <g id="outlined-logo" fill="#161414" fill-rule="nonzero">
                <path d="M17.2105263,49.8056834 L36.313177,57.9080442 L36.6315789,58.0532932 L36.6315789,66.4964758 C36.6311878,66.5136246 36.6311896,66.5307446 36.6315789,66.5478231 L36.6315789,66.6056287 C36.6315789,67.2197399 37.1198812,67.7183465 37.7247143,67.724932 L42.9117449,69.8485788 L44.5544775,70.5211378 C44.8544196,70.7513071 45.262908,70.8204572 45.637151,70.6672366 L52.8352933,67.720211 C53.0810948,67.6195763 53.2716955,67.4395667 53.389932,67.2211558 C53.5411547,67.0296699 53.6315789,66.7867909 53.6315789,66.5225225 L53.6315789,4.81895126 C53.8071562,4.26580982 53.5335689,3.66093877 52.993188,3.43969887 L45.5734149,0.401934422 C45.4448472,0.349092722 45.3064453,0.32058888 45.1654937,0.319552682 C45.0093441,0.32058888 44.8709423,0.349092722 44.7423746,0.401934422 L37.3226014,3.43969887 C36.9837873,3.57841437 36.7498546,3.86794223 36.6657543,4.20097401 C36.6098566,4.33486148 36.5789474,4.48205661 36.5789474,4.63656311 L36.5789474,16.4089037 L16.0081143,24.8001242 C15.4418976,25.0310944 15.167767,25.6832003 15.3958265,26.2566436 C15.6238861,26.8300868 16.2677742,27.107716 16.833991,26.8767458 L37.6418622,18.3888331 C37.6559127,18.3893692 37.6700304,18.3896396 37.6842105,18.3896396 C38.2946305,18.3896396 38.7894737,17.8884809 38.7894737,17.2702703 L38.7894737,17.1861779 C38.7897521,17.1717343 38.7897532,17.1572616 38.7894737,17.1427676 L38.7894737,5.25388944 L45.1578947,2.64656403 L51.4210526,5.21079315 L51.4210526,65.8844723 L45.2742382,68.4010687 L43.7402262,67.7730216 L38.8421053,65.7676587 L38.8421053,57.5675676 C38.8421053,57.5572573 38.8419676,57.5469796 38.8416941,57.5367362 C38.9303065,57.0425037 38.6800466,56.5321973 38.207375,56.3167758 L37.1937025,55.8547917 L9.1851795,43.9746004 C8.62214295,43.7357893 7.97455666,44.0044512 7.73875503,44.5746737 C7.5029534,45.1448961 7.76822971,45.8007474 8.33126626,46.0395585 L15,48.868092 L15,65.8747854 L8.60611563,68.4813727 L7.26654201,67.9329315 L2.21052632,65.8629242 L2.21052632,5.29698573 L8.68421053,2.64656403 L15.6910225,5.51525609 C16.256949,5.74695474 16.901185,5.4701543 17.1299638,4.897005 C17.3587426,4.3238557 17.0854303,3.67139752 16.5195038,3.43969887 L9.09973069,0.401934422 C8.97116299,0.349092722 8.83276112,0.32058888 8.69180945,0.319552682 C8.53565993,0.32058888 8.39725806,0.349092722 8.26869037,0.401934422 L0.848917227,3.43969887 C0.670754595,3.51264127 0.521592677,3.62728474 0.407967375,3.7680266 C0.159019246,3.97327571 8.60287895e-15,4.28611194 8.55456057e-15,4.63656311 L0,66.6824324 C-8.23692617e-17,67.2798532 0.462120596,67.7679625 1.04408619,67.8001161 L6.43806067,70.0084887 L8.26996986,70.7584993 C8.6670633,70.9210752 9.10271164,70.8332966 9.40633815,70.5684528 L16.3599566,67.7336794 C16.4819697,67.7045348 16.5961752,67.6549114 16.6988414,67.5885884 C17.1851152,67.3262026 17.4107832,66.7330458 17.2105263,66.2021505 L17.2105263,49.8056834 Z" id="Combined-Shape"></path>
                <path d="M46.2495244,20.1563835 C46.404822,20.6956916 46.1387281,21.2787829 45.6149383,21.5009475 L18.804274,32.8726508 L38.0262869,41.0256389 C38.5893235,41.26445 38.8545998,41.9203013 38.6187981,42.4905237 C38.3829965,43.0607461 37.7354102,43.3294081 37.1723737,43.090597 L15.9430778,34.0862229 L9.26906188,36.9169968 C8.70602534,37.1558079 8.05843905,36.8871459 7.82263742,36.3169235 C7.58683579,35.746701 7.8521121,35.0908497 8.41514864,34.8520386 L15,32.0590837 L15,4.63738739 C15,4.01917676 15.4948432,3.51801802 16.1052632,3.51801802 C16.7156831,3.51801802 17.2105263,4.01917676 17.2105263,4.63738739 L17.2105263,31.1214923 L42.1137652,20.5588207 L37.006812,18.4679588 C36.4408854,18.2362601 36.1675732,17.583802 36.396352,17.0106527 C36.6251308,16.4375034 37.2693668,16.1607029 37.8352933,16.3924016 L44.0526316,18.9378715 L44.0526316,8.27062959 L42.9117449,7.80353376 L37.3226014,5.51525609 C36.7566749,5.28355743 36.4833627,4.63109925 36.7121415,4.05794995 C36.9409203,3.48480065 37.5851563,3.20800021 38.1510828,3.43969887 L43.7402262,5.72797654 L45.2742382,6.35602366 L52.006812,3.59960878 C52.5727385,3.36791012 53.2169744,3.64471056 53.4457532,4.21785986 C53.674532,4.79100916 53.4012198,5.44346734 52.8352933,5.675166 L46.2631579,8.36589506 L46.2631579,19.9800636 C46.2631579,20.0400562 46.2584979,20.0989465 46.2495244,20.1563835 Z" id="Combined-Shape"></path>
                <path d="M44.0526316,30.8085013 L38.7894737,33.0408619 L38.7894737,48.4120212 C38.7894737,49.0302318 38.2946305,49.5313905 37.6842105,49.5313905 C37.4323323,49.5313905 37.2001327,49.4460611 37.0142576,49.3023881 L8.41514864,37.1721187 C8.24136965,37.0984106 8.095956,36.9849743 7.98488572,36.8465894 C7.73710289,36.6413154 7.57894737,36.3292279 7.57894737,35.9797297 L7.57894737,8.27062959 L6.43806067,7.80353376 L0.848917227,5.51525609 C0.282990713,5.28355743 0.0096784923,4.63109925 0.238457296,4.05794995 C0.467236099,3.48480065 1.11147205,3.20800021 1.67739856,3.43969887 L7.26654201,5.72797654 L8.80055402,6.35602366 L15.5331278,3.59960878 C16.0990543,3.36791012 16.7432902,3.64471056 16.972069,4.21785986 C17.2008478,4.79100916 16.9275356,5.44346734 16.3616091,5.675166 L9.78947368,8.36589506 L9.78947368,35.3278925 L36.5789474,46.6906077 L36.5789474,33.9784533 L26.6083142,38.2074825 C26.0452776,38.4462936 25.3976913,38.1776316 25.1618897,37.6074092 C24.9260881,37.0371867 25.1913644,36.3813355 25.7544009,36.1425243 L44.5427844,28.1734595 C44.7186234,28.0539527 44.9302199,27.9842342 45.1578947,27.9842342 C45.7683147,27.9842342 46.2631579,28.485393 46.2631579,29.1036036 L46.2631579,69.6025409 C46.2631579,70.2207516 45.7683147,70.7219103 45.1578947,70.7219103 C44.5474748,70.7219103 44.0526316,70.2207516 44.0526316,69.6025409 L44.0526316,30.8085013 Z M9.78947368,45.0945946 C9.78947368,44.476384 9.29463051,43.9752252 8.68421053,43.9752252 C8.07379054,43.9752252 7.57894737,44.476384 7.57894737,45.0945946 L7.57894737,69.4185669 C7.57894737,70.0367775 8.07379054,70.5379362 8.68421053,70.5379362 C9.29463051,70.5379362 9.78947368,70.0367775 9.78947368,69.4185669 L9.78947368,45.0945946 Z" id="Combined-Shape"></path>
            </g>
        </g>
    </g>
</svg>